<?xml version="1.0" standalone="no"?>
<!DOCTYPE svg PUBLIC "-//W3C//DTD SVG 1.1//EN" "http://www.w3.org/Graphics/SVG/1.1/DTD/svg11.dtd" >
<!--
2013-9-30: Created.
-->
<svg>
<metadata>
Created by iconfont
</metadata>
<defs>

<font id="" horiz-adv-x="1024" >
  <font-face
    font-family=""
    font-weight="500"
    font-stretch="normal"
    units-per-em="1024"
    ascent="896"
    descent="-128"
  />
    <missing-glyph />
    
    <glyph glyph-name="dingxiang" unicode="&#58880;" d="M866.783524 703.691539l-37.390752-39.964431c33.654502-55.787014 53.021302-121.165808 53.021302-191.070815 0-94.347844-35.271373-180.456538-93.348462-245.858447l0.68397 0.012545-9.771168-9.881113c-3.035783-3.1805-6.127576-6.307064-9.274391-9.378508L631.017486 66.286876c0.064604 0.019263 0.128318 0.039513 0.191934 0.057887L512-53.559197 243.000077 217.900706l0.09651 0.000988c-62.919801 66.390721-101.518268 156.062796-101.518268 254.7546 0 204.580999 165.838804 370.415951 370.415951 370.415951 71.049106 0 137.420565-20.005429 193.798891-54.683416l36.807046 39.339335C676.254827 870.906976 597.058043 896 511.994172 896 278.20003 896 88.667851 706.458239 88.667851 472.656294c0-109.117012 41.295722-208.57764 109.094884-283.64176 0.916405-1.284963 1.959252-2.510063 3.141975-3.653174l3.632034-3.667695c4.47129-4.723976 9.044821-9.349565 13.728296-13.863332l243.990766-246.398589c0.545971-0.526708 1.114168-1.019633 1.693922-1.492307l47.946154-47.939437 45.578832 45.578832c1.289803 0.867211 2.522608 1.849307 3.672535 2.959622l261.351097 263.929616c1.469192 1.417134 2.725211 2.961499 3.783468 4.591805 67.774071 75.058292 109.050432 174.500645 109.050432 283.594443C935.331161 557.899554 910.132045 637.256465 866.783524 703.691539zM370.878945 490.29529c0-77.935925 63.179303-141.10851 141.10851-141.10851 77.935925 0 141.11908 63.172586 141.11908 141.10851 0 77.93306-63.183155 141.112363-141.11908 141.112363C434.058346 631.407652 370.878945 568.227362 370.878945 490.29529zM600.197153 490.29529c0-48.705396-39.493732-88.191325-88.201993-88.191325-48.712114 0-88.19903 39.486916-88.19903 88.191325 0 48.712114 39.486916 88.195177 88.19903 88.195177C560.703421 578.490467 600.197153 539.007403 600.197153 490.29529z"  horiz-adv-x="1024" />

    
    <glyph glyph-name="mingpian" unicode="&#58882;" d="M931.445 684.374l-838.609 0c-50.674 0-91.9-41.229-91.9-91.906l0-584c0-50.678 41.226-91.907 91.9-91.907l33.095 0c3.36-0.169 6.815-0.259 10.374-0.259 3.799 0 7.015 0.103 9.385 0.213 1.664-0.049 3.327-0.082 4.968-0.082 2.75 0 4.885 0.07 6.154 0.127l366.99-0.582c1.12-0.045 3.015-0.102 5.472-0.102 2.944 0 7.157 0.088 12.029 0.43l4.815-0.004c0.373-0.006 0.974-0.013 1.777-0.013 2.182 0 5.54 0.051 9.652 0.271l373.898 0c50.674 0 91.9 41.229 91.9 91.907l0 584C1023.345 643.146 982.119 684.374 931.445 684.374zM555.94-19.439l-14.532 0-1.598-0.161c-0.325-0.033-0.644-0.062-0.963-0.09l-391.474 0.354-1.238 0.007-1.306-0.105c-0.002 0-0.021-0.002-0.053-0.004l-17.026 0c-5.859 0.37-10.296 1.085-13.421 1.81 2.336 32.908 17.356 78.817 53.792 118.562 29.764 32.467 84.165 71.169 174.31 71.169 90.333 0 145.262-38.776 175.434-71.306 36.773-39.646 52.08-85.107 54.612-117.805C568.382-18.048 562.613-18.993 555.94-19.439zM959.345 8.468c0-15.388-12.516-27.907-27.9-27.907l-294.74 0c-0.984 25.378-7.082 52.505-17.818 78.942-12.519 30.827-31.226 60.155-54.098 84.814-38.837 41.871-108.939 91.783-222.357 91.783-113.413 0-183.044-49.986-221.486-91.92-24.704-26.948-43.861-58.662-56.01-91.569l0 539.856c0 15.388 12.516 27.906 27.9 27.906l838.609 0c15.384 0 27.9-12.519 27.9-27.906L959.345 8.468zM344.423 555.883c-83.651 0-151.707-68.053-151.707-151.7 0-83.658 68.055-151.719 151.707-151.719 83.655 0 151.713 68.061 151.713 151.719C496.135 487.83 428.077 555.883 344.423 555.883zM344.423 316.464c-48.361 0-87.707 39.351-87.707 87.719 0 48.358 39.345 87.7 87.707 87.7 48.365 0 87.713-39.342 87.713-87.7C432.135 355.815 392.788 316.464 344.423 316.464zM577.096 556.924l318 0 0-64-318 0 0 64ZM577.096 428.924l318 0 0-64-318 0 0 64ZM577.096 300.924l193 0 0-64-193 0 0 64Z"  horiz-adv-x="1024" />

    
    <glyph glyph-name="saomiaoerweima" unicode="&#58905;" d="M199.123105 440.907081 0.021487 440.907081l0-113.77323 199.101617 0L199.123105 440.907081zM0.021487-127.958044l398.206304 0L398.227792 270.24826 0.021487 270.24826 0.021487-127.958044zM113.794717 156.47503l170.659845 0 0-170.658821L113.794717-14.183791 113.794717 156.47503zM398.227792 896 0.021487 896l0-398.205281 398.206304 0L398.227792 896zM284.454562 611.565902 113.794717 611.565902 113.794717 782.22677l170.659845 0L284.454562 611.565902zM739.545434 156.47503 853.318664 156.47503 853.318664 270.24826 625.772204 270.24826l0-227.54646 113.77323 0L739.545434 156.47503zM824.876891 327.133851l199.101617 0L1023.978509 440.907081 824.876891 440.907081 824.876891 327.133851zM910.205279-14.184815 625.772204-14.184815l0-113.77323 398.206304 0L1023.978509 270.24826 910.205279 270.24826 910.205279-14.184815zM625.772204 896l0-398.205281 398.206304 0L1023.978509 896 625.772204 896zM910.205279 611.565902 739.545434 611.565902 739.545434 782.22677l170.659845 0L910.205279 611.565902zM455.11236 440.907081 312.896334 440.907081l0-113.77323 142.215002 0 0-170.658821 113.77323 0L568.884566 611.565902 455.11236 611.565902 455.11236 440.907081zM455.11236 725.339132l113.77323 0L568.88559 896 455.11236 896 455.11236 725.339132zM455.11236-127.958044l113.77323 0L568.88559 42.7018 455.11236 42.7018 455.11236-127.958044z"  horiz-adv-x="1024" />

    
    <glyph glyph-name="kaoqin" unicode="&#58901;" d="M821.88 392.984c-25.08 0-47.288-12.496-60.744-31.584-2.096 39.08-34.536 70.232-74.136 70.232-26.304 0-49.464-13.744-62.648-34.448-0.216 1.376-0.544 2.712-0.84 4.064 48.112 51.816 77.648 121.048 77.648 197.176 0 160.232-130.352 290.576-290.584 290.576C250.352 889 120 758.656 120 598.424c0-136.648 94.888-251.288 222.192-282.12l0-147.736L294.744 216c-14.016 14.016-32.664 21.752-52.496 21.752-19.832 0-38.48-7.736-52.496-21.752C175.728 201.98400000000004 168 183.336 168 163.49599999999998s7.728-38.488 21.752-52.504l187.664-187.664c1.008-1.016 2.104-1.888 3.312-2.832 26.12-27.072 61.088-41.968 98.608-41.968l279.632 0c75.632 0 137.16 61.52 137.16 137.16L896.128 318.72799999999995C896.128 359.672 862.824 392.984 821.88 392.984zM153.104 598.424c0 141.968 115.504 257.472 257.48 257.472 141.984 0 257.48-115.504 257.48-257.472 0-62.88-22.84-120.36-60.48-165.032-13.624 16.024-33.888 26.232-56.52 26.232-0.848 0-1.672-0.128-2.512-0.16 35.832 35.512 58.176 84.616 58.176 138.96 0 108.152-87.992 196.144-196.144 196.144S214.432 706.576 214.432 598.424c0-84.104 53.24-155.88 127.76-183.68l0-64.256C233.336 380.496 153.104 480.16 153.104 598.424zM342.192 616.768l0-166.056c-55.784 25.904-94.656 82.256-94.656 147.712 0 89.896 73.144 163.04 163.04 163.04s163.04-73.144 163.04-163.04c0-60.8-33.496-113.808-82.952-141.8L490.664 616.768c0 40.944-33.304 74.248-74.232 74.248C375.496 691.016 342.192 657.712 342.192 616.768zM856.4 15.696000000000026c0-53.72-43.696-97.432-97.432-97.432L479.336-81.73599999999999c-26.944 0-52.048 10.832-70.688 30.512-0.4 0.448-0.832 0.856-1.272 1.24-0.76 0.68-1.56 1.296-1.984 1.504L217.84 139.08000000000004c-6.512 6.52-10.112 15.208-10.112 24.424 0 9.232 3.6 17.896 10.112 24.416 6.52 6.52 15.192 10.112 24.408 10.112s17.888-3.584 24.408-10.112l81.344-81.368c5.664-5.664 14.216-7.392 21.648-4.288 7.424 3.08 12.264 10.312 12.264 18.336L381.912 616.768c0 19.032 15.488 34.52 34.52 34.52 19.024 0 34.504-15.488 34.504-34.52l0-399.328c0-5.504 2.304-10.784 6.336-14.528 4.048-3.752 9.408-5.744 14.984-5.28 2.352 0.184 4.688 0.368 7.072 0.368l17.336 0c10.976 0 19.864 8.896 19.864 19.856l0 167.52c0 19.032 15.496 34.512 34.52 34.512s34.512-15.48 34.512-34.512l0-167.52c0-10.96 8.888-19.856 19.856-19.856l27.192 0c10.968 0 19.856 8.896 19.856 19.856l0 139.52c0 19.032 15.496 34.528 34.512 34.528 19.032 0 34.512-15.496 34.512-34.528l0-139.52c0-10.96 8.888-19.856 19.856-19.856l17.584 0c2.4 0 4.736-0.176 7.072-0.368 5.448-0.416 10.936 1.504 14.976 5.28 4.056 3.752 6.336 9.024 6.336 14.528l0 101.28c0 19.04 15.504 34.528 34.528 34.528s34.512-15.496 34.512-34.528L856.352 15.696000000000026z"  horiz-adv-x="1024" />

    
    <glyph glyph-name="weigui" unicode="&#58920;" d="M1004.8 83.20000000000005L582.4 793.6C550.4 851.2 467.2 851.2 435.2 793.6L12.8 76.79999999999995C-19.2 19.200000000000045 19.2-64 89.6-64l844.8 0C998.4-64 1043.2 25.600000000000023 1004.8 83.20000000000005zM576 19.200000000000045L448 19.200000000000045l0 128 128 0L576 19.200000000000045zM576 192L448 192 448 640l128 0L576 192z"  horiz-adv-x="1024" />

    
    <glyph glyph-name="fanhui" unicode="&#58971;" d="M877.216 404.192M758.528-53.984c12.512 12.512 13.248 31.872 2.048 43.776L384.096 366.304c-16.16 15.328-16.096 19.328 0 35.424L760.576 778.176c11.232 11.872 10.464 31.264-2.048 43.776-12.736 12.736-32.608 13.44-44.448 1.632L295.872 405.408C290.72 400.256 288.416 393.536 288 386.624l0-5.248c0.448-6.944 2.752-13.632 7.872-18.784l418.176-418.176C725.92-67.392 745.824-66.688 758.528-53.984z"  horiz-adv-x="1024" />

    
    <glyph glyph-name="dashboard" unicode="&#59068;" d="M219.428571 237.714286q0 30.285714-21.428571 51.714286t-51.714286 21.428571-51.714286-21.428571-21.428571-51.714286 21.428571-51.714286 51.714286-21.428571 51.714286 21.428571 21.428571 51.714286zm109.714286 256q0 30.285714-21.428571 51.714286t-51.714286 21.428571-51.714286-21.428571-21.428571-51.714286 21.428571-51.714286 51.714286-21.428571 51.714286 21.428571 21.428571 51.714286zm244.571429-274.857143l57.714286 218.285714q3.428571 14.857143-4.285714 27.714286t-22 16.857143-27.428571-3.714286-17.142857-22.571429l-57.714286-218.285714q-34.285714-2.857143-61.142857-24.857143t-36-56.285714q-11.428571-44 11.428571-83.428571t66.857143-50.857143 83.428571 11.428571 50.857143 66.857143q9.142857 34.285714-3.428571 66.857143t-41.142857 52zm377.142857 18.857143q0 30.285714-21.428571 51.714286t-51.714286 21.428571-51.714286-21.428571-21.428571-51.714286 21.428571-51.714286 51.714286-21.428571 51.714286 21.428571 21.428571 51.714286zm-365.714286 365.714286q0 30.285714-21.428571 51.714286t-51.714286 21.428571-51.714286-21.428571-21.428571-51.714286 21.428571-51.714286 51.714286-21.428571 51.714286 21.428571 21.428571 51.714286zm256-109.714286q0 30.285714-21.428571 51.714286t-51.714286 21.428571-51.714286-21.428571-21.428571-51.714286 21.428571-51.714286 51.714286-21.428571 51.714286 21.428571 21.428571 51.714286zm182.857143-256q0-149.142857-80.571429-276-10.857143-16.571429-30.857143-16.571429l-801.142857 0q-20 0-30.857143 16.571429-80.571429 126.285714-80.571429 276 0 104 40.571429 198.857143t109.142857 163.428571 163.428571 109.142857 198.857143 40.571429 198.857143-40.571429 163.428571-109.142857 109.142857-163.428571 40.571429-198.857143z"  horiz-adv-x="1024" />

    
    <glyph glyph-name="hamburger" unicode="&#58885;" d="M958.060195 658.318716c0-9.611915-7.792477-17.404392-17.404392-17.404392L79.092359 640.914324c-9.611915 0-17.404392 7.792477-17.404392 17.404392l0 90.030479c0 9.611915 7.792477 17.404392 17.404392 17.404392l861.562421 0c9.611915 0 17.404392-7.792477 17.404392-17.404392L958.059172 658.318716zM958.060195 338.511993c0-9.611915-7.792477-17.404392-17.404392-17.404392L79.092359 321.107601c-9.611915 0-17.404392 7.792477-17.404392 17.404392l0 90.030479c0 9.611915 7.792477 17.404392 17.404392 17.404392l861.562421 0c9.611915 0 17.404392-7.792477 17.404392-17.404392L958.059172 338.511993zM958.060195 18.70527c0-9.611915-7.792477-17.404392-17.404392-17.404392L79.092359 1.300878c-9.611915 0-17.404392 7.792477-17.404392 17.404392l0 90.030479c0 9.611915 7.792477 17.404392 17.404392 17.404392l861.562421 0c9.611915 0 17.404392-7.792477 17.404392-17.404392L958.059172 18.70527z"  horiz-adv-x="1024" />

    
    <glyph glyph-name="zhiwen1" unicode="&#58910;" d="M896 896H770.253l17.1-17.408H896c61.133 0 110.592-49.46 110.592-110.592v-107.725L1024 643.277V768c0 70.656-57.344 128-128 128zM128-110.592c-61.133 0-110.592 49.46-110.592 110.592V115.2L0 132.506V0c0-70.656 57.344-128 128-128h129.74l-16.895 17.408H128zM17.408 768c0 61.133 49.46 110.592 110.592 110.592h112.128L257.536 896H128C57.344 896 0 838.656 0 768v-124.928l17.408 16.794V768z m989.184-768c0-61.133-49.46-110.592-110.592-110.592H785.408L768.717-128H896c70.656 0 128 57.344 128 128V132.71l-17.408-17.408V0z m-846.54 492.442c0 10.342-8.398 18.841-18.842 18.841-7.066 0-12.903-3.891-15.975-9.625l-1.536 0.716s-42.189-154.112 5.837-243.302l2.048 0.614c1.843-7.577 8.704-13.21 16.794-13.21 9.625 0 16.998 7.783 16.998 17.409 0 2.355-0.512 4.608-1.331 6.656l0.205 0.102s-41.063 109.159-5.94 213.811a18.972 18.972 0 0 1 1.741 7.988zM836.095 322.56c6.042 0 11.264 3.072 14.336 7.68l3.277-1.638s9.318 212.172-104.141 301.158c0 0-144.282 148.07-370.586 63.693v-0.103c-6.144-1.74-10.24-7.372-10.24-14.028 0-8.09 6.452-14.644 14.541-14.644 0.41 0 0.82 0.103 1.229 0.103l0.102-0.41s205.824 68.813 330.138-46.285c0 0 122.266-97.587 104.243-272.179l0.512-0.205c-0.614-1.74-0.921-3.584-0.921-5.53-0.205-9.727 7.782-17.612 17.51-17.612zM331.981 149.197c0.717 1.74 1.024 3.686 1.024 5.734 0 8.397-6.759 15.258-15.155 15.258-6.452 0-11.674-3.994-13.824-9.728l-0.717 0.307c-10.138-33.178-34.816-75.264-34.816-75.264l0.512-0.307c-2.97-3.175-4.813-7.475-4.813-12.288 0-9.626 7.782-17.51 17.408-17.51 8.397 0 15.053 5.939 16.691 13.823 15.36 24.781 33.997 79.872 33.997 79.872l-0.307 0.103z m11.98 492.237l-0.716 0.716c2.662 2.868 4.403 6.759 4.403 11.06 0 8.704-7.066 15.77-15.77 15.77-4.3 0-8.192-1.742-10.854-4.506l-0.205 0.102C140.902 552.55 175.923 322.765 175.923 322.765c18.023-78.336 0-138.957 0-138.957l0.512-0.307c-2.97-3.175-4.915-7.475-4.915-12.288 0-9.626 7.782-17.408 17.408-17.408 8.602 0 15.462 6.349 16.794 14.643 26.726 62.362-0.82 189.133-0.82 189.133-6.963 208.486 139.06 283.853 139.06 283.853z m-190.873-74.65c-2.458-2.867-3.994-6.554-3.994-10.65 0-8.806 7.066-15.872 15.77-15.872 3.891 0 7.27 1.434 10.035 3.79l1.127-1.127C288.46 733.184 453.632 745.984 495.923 745.984c1.434-0.307 2.765-0.512 4.301-0.512 1.331 0 2.56 0.102 3.789 0.41 1.433 0 2.253-0.103 2.15-0.103l-0.102 0.82c6.758 2.457 11.469 8.908 11.469 16.588 0 9.83-7.885 17.715-17.613 17.715-1.741 0-3.38-0.307-4.915-0.819C253.03 765.747 159.13 579.277 153.088 566.784z m416.666 51.405l0.307 0.819a15.463 15.463 0 0 1 5.734-1.126c8.295 0 14.746 6.758 14.746 15.052 0 6.35-3.891 11.776-9.319 14.03l0.103 0.204c-173.261 41.062-278.016-86.835-278.016-86.835-81.818-77.517-63.693-220.16-63.693-220.16 28.57-115.2-11.571-202.752-11.571-202.752l0.307-0.41c-2.97-3.174-4.71-7.373-4.71-12.083 0-9.626 7.782-17.408 17.408-17.408 3.276 0 6.348 1.024 8.908 2.56l1.23-1.536c56.729 78.336 28.978 208.486 28.978 208.486-27.443 84.07 5.735 162.202 5.735 162.202 90.829 180.634 283.853 138.957 283.853 138.957z m260.3-434.381c0-9.728 7.885-17.92 17.613-17.92s17.306 8.192 17.306 17.408h0.205s4.403 39.322 0 92.98l-1.23-0.103c-2.354 7.065-8.908 12.288-16.69 12.288-9.728 0-17.306-7.885-17.306-17.715 0-1.639 0.307-3.277 0.717-4.813 0.717-12.698 2.56-48.845 0.205-76.39a20.41 20.41 0 0 1-0.82-5.735zM581.53 740.557l-0.103-0.717c263.578-45.158 298.189-313.446 300.954-339.558-0.103-0.717-0.205-1.434-0.205-2.15 0-9.729 8.09-17.716 17.818-17.716 9.728 0 17.51 7.885 17.51 17.613v0.307h-0.205c-20.07 299.008-277.606 365.67-323.174 375.091a18.141 18.141 0 0 1-7.475 1.639c-9.728 0-17.306-7.988-17.306-17.716 0-7.884 5.12-14.438 12.186-16.793z m131.89-296.448c-2.252 7.168-8.908 12.39-16.793 12.39-9.728 0-17.305-7.885-17.305-17.715 0-1.946 0.41-3.891 1.024-5.632l-0.615-0.205s45.568-121.651 0.103-370.278c-2.765-2.765-4.506-6.759-4.506-11.06 0-8.601 6.963-15.564 15.565-15.564 4.198 0 7.885 1.74 10.65 4.403l1.33-1.331s52.532 140.697 11.572 405.504l-1.024-0.512zM691.2 496.64c0 6.554-3.584 12.186-8.909 15.36-87.757 100.352-205.21 77.312-205.21 77.312C296.96 553.677 297.575 386.56 297.575 386.56c30.925-83.558 11.572-156.365 11.572-156.365a19.998 19.998 0 0 1-0.308-3.481c0-9.626 7.783-17.51 17.408-17.51 8.91 0 15.77 6.655 16.794 15.36l0.82-0.103c21.298 57.446-11.572 167.936-11.572 167.936 21.197 147.251 144.794 162.201 144.794 162.201 91.648 22.733 161.177-43.11 180.121-63.59 2.355-6.963 8.909-11.98 16.589-11.98 9.83-0.103 17.408 7.782 17.408 17.612z m-223.744 20.275c-8.192-0.512-14.438-7.27-14.438-15.667 0-8.704 7.065-15.77 15.77-15.77 0.818 0 1.535 0.103 2.354 0.205l0.205-0.614s127.693 48.947 162.202-98.407c0 0 20.377-184.012-28.672-352.46-2.867-2.765-4.608-6.554-4.608-10.957 0-8.295 6.656-14.95 14.95-14.95 8.192 0 14.541 6.655 14.541 14.847 12.39 47.31 77.517 315.392 3.891 444.519-0.102 0-65.536 85.197-166.195 49.254z m322.253-415.437c0 0.41-0.103 0.922-0.103 1.332l0.308-0.103s12.697 192.41-5.735 330.138c0 0-29.9 145.92-139.059 185.344l-0.205-0.307c-1.945 1.024-4.096 1.638-6.451 1.638-7.782 0-13.824-6.349-13.824-14.234 0-3.686 1.434-6.963 3.789-9.523l-0.615-0.717S747.52 534.938 755.2 398.131c0 0 13.62-147.865 0-289.587l0.922-0.102c-0.82-2.15-1.332-4.404-1.332-6.861 0-9.728 7.885-17.715 17.613-17.715 9.728-0.103 17.306 7.884 17.306 17.612z m-266.24 7.066s37.478 115.917 5.734 283.853l-1.024-0.307c-3.072 5.53-8.806 9.216-15.565 9.216-9.83 0-17.408-7.988-17.408-17.92 0-0.717 0.103-1.536 0.205-2.253l-0.921-0.307s36.352-149.914-5.735-260.71l1.331-0.41c-1.126-2.356-1.843-5.018-1.843-7.885 0-9.626 7.783-17.408 17.408-17.408 8.602 0 15.463 6.349 16.794 14.54l1.024-0.409zM465.51 317.03c-26.01 124.416 46.388 121.652 46.388 121.652 82.636 3.072 57.958-185.344 57.958-185.344l0.512-0.103c-0.512-1.638-0.922-3.277-0.922-5.017 0-8.192 6.554-14.848 14.746-14.848 7.885 0 14.029 6.246 14.336 14.233h0.205c6.041 69.53-5.735 144.794-5.735 144.794-27.443 93.286-110.08 63.693-110.08 63.693-76.083-21.197-40.55-179.61-40.55-179.61 20.89-125.44-52.122-249.037-52.122-249.037l0.512-0.307c-2.97-3.174-4.812-7.475-4.812-12.288 0-9.626 7.782-17.408 17.408-17.408 8.499 0 15.257 6.042 16.69 14.029C500.532 158.003 465.51 317.03 465.51 317.03z m21.3-246.067a13.345 13.345 0 0 1-9.012-3.481l-0.716 0.512S455.578 29.9 448.819 17.1a15.075 15.075 0 0 1-5.017-11.264c0-8.295 6.656-14.95 14.848-14.95 5.632 0 10.24 3.174 12.697 7.68 1.229 2.56 21.3 18.431 28.877 52.019l-0.41 0.307c0.82 1.74 1.23 3.686 1.23 5.837 0 7.782-6.35 14.233-14.234 14.233zM424.96 456.09l-0.717 0.512c0.922 1.945 1.434 3.993 1.434 6.246a14.094 14.094 0 0 1-14.131 14.131c-3.687 0-6.964-1.433-9.421-3.789l-0.307 0.308c-54.272-43.52-28.98-173.773-28.98-173.773 27.444-112.64-40.55-237.466-40.55-237.466-2.662-2.867-4.403-6.86-4.403-11.161 0-8.91 7.168-16.18 16.077-16.18 4.403 0 8.192 1.741 11.059 4.608l0.41-0.41c57.65 93.697 57.958 225.895 57.958 225.895-39.22 147.354 11.571 191.079 11.571 191.079z m159.334-257.332c-8.192 0-14.438-6.86-14.438-15.052v-0.308s-6.554-110.592-46.285-167.73l0.41-0.103c-3.072-3.175-4.813-7.373-4.813-12.186 0-9.625 7.782-17.408 17.408-17.408 8.192 0 14.848 5.735 16.589 13.415 4.403 6.041 32.051 48.844 45.26 180.224 0.41 1.433 0.717 2.867 0.717 4.403-0.102 8.09-6.758 14.745-14.848 14.745z"  horiz-adv-x="1024" />

    
    <glyph glyph-name="meiyoudingdan-01" unicode="&#58904;" d="M513.15 254.012c168.465 0 327.328-73.28 435.855-201.055 17.151-20.15 14.863-49.97-5.208-67.902-8.204-7.333-19.016-11.374-30.437-11.374-14.296 0-27.943 6.08-37.444 16.681C784.2 97.218 651.521 158.556 511.991 158.556c-140.53 0-273.215-61.351-364.031-168.317-9.165-10.763-22.292-16.942-36.014-16.942-11.251 0-22.12 4.175-30.606 11.759-10.123 8.6-16.111 20.257-16.981 32.942-0.847 12.384 3.298 24.35 11.671 33.693 110.402 128.613 269.695 202.321 437.12 202.321z m273.223 246.564c-43.766 0-80.734 37.845-80.734 82.638V703.895c0 44.798 36.969 82.646 80.734 82.646 43.763 0 80.734-37.848 80.734-82.646v-120.683c0-45.566-36.216-82.636-80.734-82.636z m-547.906 0c-43.761 0-80.731 37.845-80.731 82.638V703.895c0 44.798 36.97 82.646 80.731 82.646 43.771 0 80.746-37.848 80.746-82.646v-120.683c0-44.791-36.975-82.636-80.746-82.636z"  horiz-adv-x="1024" />

    
    <glyph glyph-name="usercenter" unicode="&#58973;" d="M536.019753-75.62610199999995c-10.47478 0-20.949559 0.361199-30.70194 0.722398-7.223986-0.361199-14.447972-0.361199-21.671958-0.361199-94.995414 0-203.716402 24.200353-260.424691 38.648325-55.624691 12.641975-102.5806 27.451146-140.145326 44.066313-4.334392 1.805996-7.585185 5.05679-9.391182 9.391182-3.250794 7.223986-15.17037 49.123104 53.818695 150.981305 0 0.361199 0.361199 0.361199 0.361199 0.722399 0.722399 1.083598 17.698765 23.839153 55.624692 42.260317 1.444797 1.444797 3.250794 2.889594 5.417989 3.973193l172.292064 82.353439c0.722399 2.528395 1.444797 5.05679 1.805996 7.585185 1.444797 6.501587 3.250794 13.364374 4.695591 19.143562 0 0.361199 0.361199 1.083598 0.361199 1.444798-15.892769 23.477954-28.534744 49.484303-36.481129 75.490652-7.585185 6.140388-16.615168 17.698765-20.22716 39.009524-6.501587 23.477954-11.558377 54.179894 0 69.711464 2.167196 2.889594 4.695591 5.05679 7.223986 6.501587-20.58836 105.108995-7.946384 147.008113-5.05679 154.954498 27.089947 83.437037 115.222575 124.252557 122.80776 127.50335 36.119929 17.698765 82.714638 33.230335 84.881834 33.952734 5.417989 1.805996 11.558377 1.083598 16.253968-2.528395 4.695591-3.250794 7.585185-8.668783 7.585185-14.809171 0-6.862787 12.280776-18.782363 20.94956-24.200353 1.083598-0.722399 1.805996-1.444797 2.528395-2.167195 2.889594-2.167196 13.725573-7.585185 18.782363-10.113581 3.973192-2.167196 6.862787-3.611993 8.668783-4.695591 59.236684-18.421164 87.04903-51.2903 91.383421-57.069488 58.153086-66.099471 30.70194-166.512875 20.94956-196.131217 1.805996-2.167196 3.611993-4.695591 5.05679-7.585185 7.946384-15.53157 7.223986-36.842328-2.167196-63.932275-1.805996-7.585185-9.752381-40.454321-25.64515-59.236685-8.668783-22.755556-20.949559-45.511111-35.397531-66.099471 0.361199-3.250794 1.444797-6.140388 3.250794-12.280776l0.361199-0.722398c1.805996-5.417989 3.611993-10.835979 5.05679-14.086773l123.16896-68.627866c41.537919-18.059965 101.858201-49.845503 115.583774-61.04268 14.447972-11.558377 57.430688-98.246208 54.902293-139.784127-1.083598-16.976367-8.668783-25.283951-15.170371-29.257143-0.722399-0.361199-1.805996-1.083598-2.528395-1.444797-5.779189-2.528395-140.506526-59.597884-338.443739-70.433863-20.949559-1.083598-41.537919-1.805996-60.320282-1.805996m-30.340741 36.842328h1.083598c9.391182-0.361199 19.143563-0.722399 29.618342-0.722399 18.059965 0 37.564727 0.722399 58.153087 2.167196h0.361199c173.014462 9.391182 298.350617 56.34709 322.189771 65.738272 3.973192 20.22716-29.618342 96.801411-42.260318 111.249382-10.835979 8.307584-66.46067 37.925926-107.637389 55.624692-0.722399 0.361199-1.083598 0.361199-1.805997 0.722398l-128.225749 71.156261c-2.167196 1.444797-4.334392 3.250794-5.779189 5.05679-1.444797 1.444797-3.250794 3.611993-4.695591 7.223986-1.083598 2.528395-4.334392 10.835979-7.223986 20.227161l-0.361199 0.722398c-3.250794 10.11358-5.417989 17.337566-5.05679 29.979542 0 3.611993 1.444797 7.223986 3.611993 10.11358 14.809171 19.865961 27.089947 42.260317 35.397531 65.015873 0.722399 2.528395 2.167196 4.695591 4.334391 6.501587 8.307584 8.307584 16.253968 31.785538 19.143563 45.511111 0 0.722399 0.361199 1.444797 0.722398 2.167196 3.611993 10.11358 5.05679 17.698765 5.779189 23.116755-9.029982 1.444797-15.892769 9.391182-15.17037 18.782363 0 1.444797 0 3.250794 0.361199 4.695591 0 1.083598 0.361199 2.528395 0.361199 3.611993l1.805997 7.223986v0.361199l1.083598 5.05679c0.361199 0.722399 0.361199 1.444797 0.722398 2.167196 0.361199 1.083598 41.17672 107.998589-11.919577 167.596473-0.361199 0.361199-0.722399 0.722399-1.083597 1.444797 0 0.361199-22.755556 29.257143-75.490653 45.149912-1.805996 0.722399-3.611993 1.444797-5.05679 2.528395-1.083598 0.722399-4.695591 2.528395-7.223986 3.973192-14.447972 7.223986-21.310758 11.197178-25.283951 14.809171-5.779189 3.973192-21.310758 14.809171-29.979541 30.70194-16.615168-6.140388-42.260317-15.892769-63.209877-26.006349-0.361199 0-0.361199-0.361199-0.722398-0.361199-0.722399-0.361199-80.908642-36.119929-103.302998-106.192593-0.361199-0.722399-0.361199-0.722399-0.3612-1.444797-1.083598-2.889594-12.641975-42.260317 8.668783-145.202116 0.361199-1.083598 0.361199-2.167196 0.3612-2.889595l0.361199-10.11358c0.361199-6.501587-2.889594-12.641975-8.307584-15.892769-2.528395-1.444797-5.05679-2.528395-7.946384-2.528395 0.361199-8.307584 2.528395-21.310758 5.779188-32.507937 0.361199-0.722399 0.361199-1.444797 0.3612-2.167195 2.167196-14.809171 8.307584-18.059965 8.307583-18.421164 4.695591-2.167196 7.946384-6.501587 9.391182-11.197178 7.585185-27.089947 20.58836-53.818695 37.925926-77.657849 3.611993-5.05679 4.334392-11.558377 2.167196-16.976367-1.083598-3.611993-4.695591-17.698765-6.501588-26.367548-1.083598-4.334392-2.167196-8.307584-2.889594-11.197178-1.083598-4.695591-3.611993-14.447972-12.641975-17.337566l-171.930864-82.35344c-1.444797-1.805996-3.611993-3.250794-5.779189-4.334391-31.063139-13.725573-45.511111-31.424339-47.317108-33.591534-42.982716-63.571076-49.484303-97.52381-49.845502-110.888184 33.952734-14.086772 75.851852-27.089947 124.252557-37.925926h0.361199c54.902293-14.086772 160.733686-37.564727 251.755909-37.564726 7.223986 0 14.447972 0 20.949559 0.361199-1.083598 1.083598-0.722399 1.083598-0.3612 1.083598m-129.309347 341.333333c-3.250794 0-5.779189-0.722399-8.307584-2.167196l0.361199 0.3612c2.528395 1.083598 5.417989 1.805996 8.307584 1.805996h-0.361199m11.197178 7.946385c8.307584 0 14.447972 5.417989 16.615168 10.835978 0-0.361199-0.361199-0.722399-0.3612-1.083597-2.889594-5.779189-9.391182-9.752381-16.253968-9.752381z"  horiz-adv-x="1024" />

    
    <glyph glyph-name="dongtai" unicode="&#59163;" d="M511.909684 896C229.221379 896 0.180632 666.959252 0.180632 384.270947s229.040748-511.729053 511.729052-511.729052 511.729053 229.040748 511.729053 511.729052S794.417358 896 511.909684 896z m3.973893-965.836655c-250.716528 0-454.107603 203.391074-454.107602 454.107602S265.167049 838.37855 515.883577 838.37855 969.99118 634.987476 969.99118 384.270947c0-250.89716-203.391074-454.107603-454.107603-454.107602zM409.130358 479.644382l-179.005821-354.399012c-7.22526-14.45052 8.128418-29.804198 22.578938-22.578939l354.399012 179.005822c3.251367 1.625684 5.780208 4.154525 7.405892 7.405891l179.005821 354.399012c7.22526 14.45052-8.128418 29.804198-22.578938 22.578939l-354.399012-179.005822c-3.251367-1.625684-5.780208-4.335156-7.405892-7.405891z m160.581408-160.762039l-203.210443-102.598695c-14.45052-7.22526-29.804198 8.128418-22.578938 22.578938l102.598695 203.210443c1.625684 3.251367 4.154525 5.780208 7.405891 7.405891l203.210443 102.598695c14.45052 7.22526 29.804198-8.128418 22.578938-22.578938l-102.598695-203.210443c-1.625684-3.070736-4.154525-5.780208-7.405891-7.405891zM511.909684 384.270947z m-52.925031 0z"  horiz-adv-x="1024" />

    
    <glyph glyph-name="xiangmu" unicode="&#58886;" d="M896 0l-45.44 45.12A63.808 63.808 0 0 0 896 64a64 64 0 0 1 64 64V768a64 64 0 0 1-64 64H256a64 64 0 0 1-64-64v-5.44c0-17.6-7.04-33.536-18.56-45.12L128 762.56V768a128 128 0 0 0 128 128h640a128 128 0 0 0 128-128v-640a128 128 0 0 0-128-128zM64 640v-640a64 64 0 0 1 64-64h640a64 64 0 0 1 64 64V640a64 64 0 0 1-64 64H128a64 64 0 0 1-64-64z m704 128a128 128 0 0 0 128-128v-640a128 128 0 0 0-128-128H128a128 128 0 0 0-128 128V640a128 128 0 0 0 128 128h640zM160 640h384a32 32 0 0 0 0-64h-384a32 32 0 0 0 0 64z m576-64a32 32 0 1 0 0 64 32 32 0 0 0 0-64zM64 512h768v-64H64V512z"  horiz-adv-x="1024" />

    
    <glyph glyph-name="zhuye" unicode="&#58919;" d="M998.656 392.896a22.912 22.912 0 0 0-16.384 6.72L543.808 837.056a47.36 47.36 0 0 1-65.536 0L41.92 399.616a23.296 23.296 0 0 0-32.768-0.064 23.04 23.04 0 0 0 0 32.832L445.504 869.76c34.944 35.008 96.064 34.944 130.944 0l438.464-437.376a23.232 23.232 0 0 0 0.064-32.832 23.36 23.36 0 0 0-16.32-6.656zM755.328-70.528H268.8c-40.832 0-88.064 20.8-120.448 53.184-32.384 32.576-53.312 79.872-53.312 120.576V485.568a23.168 23.168 0 0 0 46.336 0v-382.336c0-28.608 16-63.872 39.744-87.68 23.36-23.36 59.456-39.68 87.68-39.68h486.528c24.96 0 49.088 12.544 76.032 39.68 23.36 23.36 28.096 60.608 28.096 87.68V485.568c0 12.736 10.304 23.104 23.168 23.104 12.8 0 23.168-10.304 23.168-23.104v-382.336c0-35.968-7.104-85.952-41.6-120.576-36.288-36.16-70.912-53.184-108.864-53.184zM674.24-70.528H349.888v312.832A162.432 162.432 0 0 0 512.064 404.48a162.432 162.432 0 0 0 162.176-162.176v-312.832z m-278.08 46.4h231.744v266.432c0 63.872-51.968 115.904-115.84 115.904s-115.904-52.032-115.904-115.904v-266.432z"  horiz-adv-x="1024" />

    
    <glyph glyph-name="fuhao-liangduanduiqi" unicode="&#59165;" d="M96 704h832a32 32 0 0 0 0-64H96a32 32 0 1 0 0 64z m0-192h832a32 32 0 0 0 0-64H96a32 32 0 1 0 0 64z m0-192h832a32 32 0 0 0 0-64H96a32 32 0 0 0 0 64z m0-192h832a32 32 0 0 0 0-64H96a32 32 0 0 0 0 64z"  horiz-adv-x="1024" />

    
    <glyph glyph-name="location" unicode="&#58897;" d="M512.103132 575.879021a106.221743 106.221743 0 1 0-75.507022-31.354611A106.221743 106.221743 0 0 0 512.103132 575.879021m0 63.989002a170.850635 170.850635 0 1 1 120.939214-49.911422A169.570855 169.570855 0 0 1 512.103132 639.868023zM805.172761 771.685367a407.609942 407.609942 0 0 1-586.139257 0 431.285873 431.285873 0 0 1 0-599.576948L512.103132-128l293.069629 300.108419a431.285873 431.285873 0 0 1 0 599.576948z m-44.152411-557.344207l-248.917218-255.956007-248.917217 255.956007a365.377201 365.377201 0 0 0 0 508.712565 346.82039 346.82039 0 0 0 497.834435 0 365.377201 365.377201 0 0 0 0-508.712565z"  horiz-adv-x="1024" />

    
    <glyph glyph-name="xiaolian" unicode="&#58894;" d="M345.045333 473.045333a55.594667 55.594667 0 1 1 0.042667 111.232 55.594667 55.594667 0 0 1-0.042667-111.232m333.952 0a55.637333 55.637333 0 1 1 0.085334 111.274667 55.637333 55.637333 0 0 1-0.085334-111.274667M512 896C229.248 896 0 666.794667 0 384c0-282.752 229.248-512 512-512 282.794667 0 512 229.248 512 512 0.042667 282.794667-229.205333 512-512 512m0-975.957333C255.744-79.957333 48.042667 127.786667 48.042667 384 48 640.256 255.744 848 512 848s464-207.744 464-463.957333A462.72 462.72 0 0 0 512-79.957333m244.906667 463.914666a22.229333 22.229333 0 0 1-22.272-22.272 222.634667 222.634667 0 0 0-445.269334 0 22.272 22.272 0 1 1-44.544 0 267.093333 267.093333 0 0 1 534.229334 0 22.144 22.144 0 0 1-22.144 22.272"  horiz-adv-x="1024" />

    
    <glyph glyph-name="touxiang" unicode="&#59053;" d="M512 384m-512 0a512 512 0 1 1 1024 0 512 512 0 1 1-1024 0ZM615.577011 193.324138v98.868965L440.202299 354.574713l-29.425288-78.85977v-82.390805c-141.241379-41.195402-222.455172-83.567816-242.464367-125.94023-7.062069-16.478161-11.770115-32.956322-14.124138-49.434483C245.995402-72.68046 373.112644-128 512-128c138.887356 0 264.827586 55.31954 357.811494 145.949425 1.177011 4.708046 1.177011 9.416092 1.177012 12.947127-8.23908 56.496552-163.604598 134.17931-255.411495 162.427586zM517.885057 236.873563c97.691954 0 176.551724 101.222989 176.551725 211.862069 0 78.85977-28.248276 150.657471-87.098851 183.613793-23.54023 12.947126-55.31954 21.186207-83.567816 21.186207-25.894253 0-70.62069-10.593103-92.983908-21.186207C369.581609 600.570115 341.333333 529.949425 341.333333 448.735632c0-110.63908 78.85977-211.862069 176.551724-211.862069z"  horiz-adv-x="1024" />

    
    <glyph glyph-name="jibenxinxi-xiugai" unicode="&#58932;" d="M729.6 486.4h243.2c12.8 0 25.6 12.8 25.6 25.6s-12.8 25.6-25.6 25.6h-243.2c-12.8 6.4-25.6-6.4-25.6-25.6 0-12.8 12.8-25.6 25.6-25.6zM979.2 409.6h-192c-12.8 0-25.6-12.8-25.6-25.6s12.8-25.6 25.6-25.6h192c12.8 0 25.6 12.8 25.6 25.6 0 19.2-12.8 25.6-25.6 25.6zM979.2 294.4h-134.4c-12.8 0-25.6-12.8-25.6-25.6s12.8-25.6 25.6-25.6h134.4c12.8 0 25.6 12.8 25.6 25.6s-12.8 25.6-25.6 25.6zM748.8 166.4l-6.4 6.4c-6.4 6.4-12.8 6.4-19.2 12.8-12.8 6.4-25.6 12.8-44.8 19.2l-38.4 19.2c-25.6 12.8-102.4 44.8-134.4 57.6v12.8c32 25.6 51.2 83.2 57.6 108.8 25.6 19.2 32 57.6 32 70.4 6.4 12.8 0 32-6.4 44.8 0 0 0 6.4-6.4 6.4 0 12.8 6.4 19.2 6.4 32v6.4V576c0 89.6-76.8 153.6-185.6 153.6S217.6 665.6 217.6 576V556.8c0-12.8 0-19.2 6.4-32 0 0 0-6.4-6.4-6.4-6.4-6.4-12.8-25.6-6.4-44.8 0-25.6 12.8-51.2 32-70.4 6.4-25.6 25.6-83.2 57.6-102.4v-12.8c-32-12.8-108.8-51.2-134.4-64-19.2-6.4-32-12.8-44.8-19.2-70.4-32-102.4-44.8-102.4-134.4v-12.8c0-12.8 6.4-25.6 25.6-25.6H761.6c19.2 0 19.2 12.8 25.6 25.6v12.8c0 38.4-6.4 64-25.6 83.2-6.4 12.8-6.4 12.8-12.8 12.8zM70.4 83.2c0 51.2 12.8 51.2 70.4 83.2 12.8 6.4 25.6 12.8 44.8 19.2 32 12.8 128 57.6 140.8 64l12.8 6.4v12.8s6.4 32 0 57.6v6.4h-6.4c-12.8 6.4-38.4 64-44.8 89.6v12.8l-12.8 6.4S262.4 448 256 486.4l-6.4 6.4h32l-6.4 32c-6.4 12.8-6.4 25.6-6.4 38.4v25.6c0 76.8 70.4 102.4 134.4 102.4s134.4-25.6 134.4-102.4v-25.6c0-12.8 0-25.6-6.4-38.4l-12.8-25.6h32v-6.4c-6.4-44.8-19.2-51.2-19.2-51.2l-12.8-6.4v-12.8c0-25.6-25.6-83.2-44.8-89.6l-6.4-6.4V320c-6.4-25.6 0-57.6 0-57.6v-12.8l12.8-6.4s108.8-44.8 140.8-64c12.8-6.4 32-12.8 38.4-19.2 19.2-6.4 32-12.8 44.8-19.2 6.4 0 6.4-6.4 12.8-6.4l6.4-6.4c6.4-6.4 12.8-19.2 12.8-44.8H70.4z"  horiz-adv-x="1024" />

    
    <glyph glyph-name="copy" unicode="&#58893;" d="M672.896-96h-448c-51.2 0-96 44.8-96 96V640c0 51.2 44.8 96 96 96h448c51.2 0 96-44.8 96-96v-640c0-51.2-44.8-96-96-96z m-448 768c-19.2 0-32-12.8-32-32v-640c0-19.2 12.8-32 32-32h448c19.2 0 32 12.8 32 32V640c0 19.2-12.8 32-32 32h-448zM608.896 288h-320c-19.2 0-32 12.8-32 32s12.8 32 32 32h320c19.2 0 32-12.8 32-32s-12.8-32-32-32zM608.896 480h-320c-19.2 0-32 12.8-32 32s12.8 32 32 32h320c19.2 0 32-12.8 32-32s-12.8-32-32-32zM608.896 96h-320c-19.2 0-32 12.8-32 32s12.8 32 32 32h320c19.2 0 32-12.8 32-32s-12.8-32-32-32zM864.896 64c-19.2 0-32 12.8-32 32V768c0 19.2-12.8 32-32 32h-473.6c-19.2 0-32 12.8-32 32s12.8 32 32 32h473.6c51.2 0 96-44.8 96-96v-672c0-19.2-12.8-32-32-32z"  horiz-adv-x="1024" />

    
    <glyph glyph-name="jinritoutiao" unicode="&#59083;" d="M182.111373 892.185098h659.777254a178.296471 178.296471 0 0 0 178.296471-178.296471v-659.777254a178.296471 178.296471 0 0 0-178.296471-178.296471H182.111373A178.296471 178.296471 0 0 0 3.814902 54.111373V713.888627A178.296471 178.296471 0 0 0 182.111373 892.185098zM841.888627-128H182.111373A182.412549 182.412549 0 0 0 0 54.211765V713.888627A182.312157 182.312157 0 0 0 182.111373 896h659.777254A182.312157 182.312157 0 0 0 1024 713.888627v-659.676862A182.412549 182.412549 0 0 0 841.888627-128zM182.111373 888.269804A174.581961 174.581961 0 0 1 7.730196 713.888627v-659.676862a174.581961 174.581961 0 0 1 174.381177-174.481569h659.777254a174.581961 174.581961 0 0 1 174.381177 174.481569V713.888627A174.581961 174.581961 0 0 1 841.888627 888.269804zM208.614902 603.959216l65.556078 97.882353 27.90902-35.137255 39.253333 64.25098 61.239216-114.647843V739.488627h-261.019608v-172.875294h261.019608v37.446275z m-36.944314 100.392157a22.487843 22.487843 0 1 0 22.387451-22.387451 22.387451 22.387451 0 0 0-22.387451 22.387451zM687.887059 739.488627h195.262745v-28.611764H687.887059zM687.887059 685.076078h195.262745v-28.611764H687.887059zM687.887059 793.800784h195.262745v-28.611764H687.887059zM434.095686 739.488627h221.264314v-28.611764H434.095686zM434.095686 685.076078h221.264314v-28.611764H434.095686zM434.095686 793.800784h221.264314v-28.611764H434.095686zM141.151373 57.223529h514.208627v-28.611764H141.151373zM141.151373 2.81098h514.208627v-28.611764H141.151373zM141.151373 111.535686h514.208627v-28.611764H141.151373zM687.887059 57.223529h195.262745v-28.611764H687.887059zM687.887059 2.81098h195.262745v-28.611764H687.887059zM687.887059 111.535686h195.262745v-28.611764H687.887059zM158.017255 793.800784a22.989804 22.989804 0 0 0 4.718431 0 11.143529 11.143529 0 0 0 3.71451-1.505882 7.127843 7.127843 0 0 0 2.30902-2.81098 8.83451 8.83451 0 0 0 0.803137-4.216471 8.131765 8.131765 0 0 0-1.204706-4.618039 9.436863 9.436863 0 0 0-3.71451-3.011765 8.031373 8.031373 0 0 0 5.019608-3.413333 10.741961 10.741961 0 0 0 1.003922-10.942745 8.934902 8.934902 0 0 0-2.911373-3.212549 11.143529 11.143529 0 0 0-4.116078-1.907451 18.472157 18.472157 0 0 0-4.718432-0.602353H140.54902v36.241568z m-1.003922-14.657255a5.621961 5.621961 0 0 1 3.513726 1.003922 3.915294 3.915294 0 0 1 1.305098 3.312941 4.618039 4.618039 0 0 1 0 2.108235 3.413333 3.413333 0 0 1-1.204706 1.204706 4.818824 4.818824 0 0 1-1.807059 0.702745h-9.537255v-8.432941z m0-15.460392a8.533333 8.533333 0 0 1 2.30902 0 4.818824 4.818824 0 0 1 1.807059 0.702745 3.71451 3.71451 0 0 1 1.305098 1.505883 4.919216 4.919216 0 0 1 0.501961 2.309019 4.618039 4.618039 0 0 1-1.606275 4.015687 6.52549 6.52549 0 0 1-4.116078 1.204705h-8.734118v-10.039215zM184.420392 750.33098a10.641569 10.641569 0 0 0-5.822745-1.305098h-4.417255v6.02353h4.216471a2.710588 2.710588 0 0 1 2.108235 1.104313 3.112157 3.112157 0 0 1 0.702745 2.108236 4.116078 4.116078 0 0 1 0 1.606274l-9.236078 24.696471h7.730196l5.923137-17.970196 5.12 17.869804h7.529412l-11.043137-29.515294a8.533333 8.533333 0 0 0-2.810981-4.61804zM220.862745 784.464314l-3.212549-4.818824h-5.320784v-13.452549a2.409412 2.409412 0 0 1 3.011764-3.011765h2.30902v-5.62196h-3.814902a16.263529 16.263529 0 0 0-3.212549 0 5.421176 5.421176 0 0 0-2.610196 0.903529 3.915294 3.915294 0 0 0-1.807059 1.807059 6.324706 6.324706 0 0 0-0.702745 3.212549v16.163137H200.784314v4.818824h4.316862v4.116078l7.228236 3.413333v-7.529411zM267.043137 793.800784a17.167059 17.167059 0 0 0 6.52549-1.104313 12.950588 12.950588 0 0 0 5.220393-3.312942 15.259608 15.259608 0 0 0 3.513725-5.62196 23.090196 23.090196 0 0 0 1.204706-7.930981 23.792941 23.792941 0 0 0-1.003922-7.228235 15.460392 15.460392 0 0 0-3.112156-5.822745 13.251765 13.251765 0 0 0-5.12-3.814902 16.062745 16.062745 0 0 0-7.228236-1.40549H250.980392v36.241568z m-0.501961-29.515294a10.039216 10.039216 0 0 1 3.312942 0 7.730196 7.730196 0 0 1 2.911372 1.907451 8.83451 8.83451 0 0 1 2.007843 3.312941 15.259608 15.259608 0 0 1 0.803138 5.12 18.873725 18.873725 0 0 1-0.602353 4.919216 9.436863 9.436863 0 0 1-1.706667 3.814902 7.027451 7.027451 0 0 1-3.212549 2.409412 12.247843 12.247843 0 0 1-5.019608 0.803137h-5.621961v-22.78902zM364.724706 767.899608a6.023529 6.023529 0 0 0-5.521569-4.919216c-5.621961 0-6.023529 7.42902-6.023529 7.42902a11.143529 11.143529 0 0 0 0 1.907451s0 7.328627 6.023529 7.429019a6.023529 6.023529 0 0 0 5.521569-4.919215H371.45098a12.448627 12.448627 0 0 1-12.549019 10.039215 12.749804 12.749804 0 0 1-12.850196-11.946666 21.383529 21.383529 0 0 1 0-3.71451 12.749804 12.749804 0 0 1 12.850196-11.946667 12.348235 12.348235 0 0 1 12.549019 10.039216zM397.251765 769.606275h3.614117a20.078431 20.078431 0 0 1 0 3.614117A12.649412 12.649412 0 0 1 388.015686 785.568627a12.649412 12.649412 0 0 1-12.850196-11.946666 21.383529 21.383529 0 0 1 0-3.71451 12.649412 12.649412 0 0 1 12.850196-11.946667 12.348235 12.348235 0 0 1 12.247843 8.734118h-7.328627a5.521569 5.521569 0 0 0-4.919216-3.312941c-4.417255 0-5.621961 4.718431-5.923137 6.625882h15.460392z m-10.039216 10.039215c3.71451 0 5.12-3.413333 5.722353-5.621961h-10.942745c0.602353 2.30902 2.007843 5.621961 5.722353 5.722353zM243.752157 769.606275h3.614118a20.078431 20.078431 0 0 1 0 3.614117A12.749804 12.749804 0 0 1 234.516078 785.568627a12.649412 12.649412 0 0 1-12.749803-11.946666 21.383529 21.383529 0 0 1 0-3.71451 12.649412 12.649412 0 0 1 12.749803-11.946667 12.147451 12.147451 0 0 1 12.147451 8.734118h-7.328627a5.320784 5.320784 0 0 0-4.919216-3.312941c-4.417255 0-5.621961 4.718431-5.923137 6.625882h15.460392z m-10.039216 10.039215a6.324706 6.324706 0 0 0 5.722353-5.621961h-10.942745c0.602353 2.30902 2.409412 5.621961 5.722353 5.722353zM313.123137 784.062745h-7.730196a16.163137 16.163137 0 0 1-5.421176 1.104314 12.649412 12.649412 0 0 1-12.649412-11.946667 21.383529 21.383529 0 0 1 0-3.71451 12.649412 12.649412 0 0 1 12.649412-11.946666 13.05098 13.05098 0 0 1 6.726274 1.807059l6.425098-1.807059z m-13.151372-21.082353c-5.521569 0-5.923137 7.42902-5.923138 7.42902a11.143529 11.143529 0 0 0 0 1.907451s0 7.328627 5.923138 7.429019c5.421176 0 5.923137-7.42902 5.923137-7.429019v-1.907451s-0.501961-7.328627-5.923137-7.42902zM342.036078 777.035294a9.336471 9.336471 0 0 1-8.533333 8.131765 10.039216 10.039216 0 0 1-8.332549-3.312941l-7.629804 2.208627v-26.503529h7.127843v15.159215c0 7.529412 6.023529 6.927059 6.02353 6.927059 4.517647 0 4.216471-6.123922 4.21647-6.123921v-15.962353h7.228236V773.521569c0 2.007843-0.100392 3.513725-0.100393 3.513725zM0 675.739608v-621.628235c0-5.320784 0-10.641569 0.803137-15.861961L1024 96.175686V713.888627c0 5.320784 0 10.641569-0.702745 15.861961zM915.275294 317.841569v48.589804l-153.399216-8.734118v24.395294l-73.989019-4.216471v-24.395294l-153.399216-8.734117v-48.489412l153.399216 8.633725v-106.917647l73.989019 4.216471V309.107451l153.399216 8.734118zM534.387451 407.391373v-48.489412l52.705882 3.011764v0.100393l135.930981 66.961568 138.942745-51.2v-0.200784l53.308235 3.112157V429.176471l-35.538823-2.007844-91.758432 33.832157 121.574902 59.833726V604.862745l-73.989019-4.21647-170.164706-9.637648v0.100393l-59.030589 28.109804-75.394509-119.767844 62.544313-22.688627 40.257255 63.949804 201.788236 11.444706v-11.745883l-112.64-55.41647-87.441569 32.225882-29.515294-45.076078 52.003137-19.174902-88.545882-43.570196-35.036863-2.007843zM875.319216 301.276863l-73.98902-4.116079 54.01098-89.650196 73.888628 4.116079-53.910588 89.650196zM534.688627 189.138824l73.98902 4.116078 49.292549 95.573333-73.98902-4.21647-49.292549-95.472941zM358.901961 297.963922l58.528627-114.848628 81.92 4.216471-58.528627 114.748235-81.92-4.116078zM282.001569 381.992157l-59.833726 75.39451-81.618823-4.61804 59.733333-75.294117 81.719216 4.517647zM282.001569 476.16l-59.833726 75.294118-81.618823-4.517647 59.733333-75.39451 81.719216 4.618039zM352.476863 311.316078l136.633725 7.730197v48.489411l-90.75451-5.12V575.849412l-73.989019-4.116079v-213.534117L108.323137 345.85098v-48.489411l150.287059 8.533333-66.56-87.642353-81.719216-4.718431v-48.489412l137.135687 7.93098V173.176471l105.010196 138.139607z"  horiz-adv-x="1024" />

    
    <glyph glyph-name="weibo" unicode="&#58940;" d="M467.2 412.8c-99.2 0-192-60.8-192-123.2s64-113.6 180.8-113.6c99.2 0 180.8 68.8 180.8 131.2 0 62.4-70.4 105.6-169.6 105.6z m68.8-128c-3.2-46.4-41.6-81.6-92.8-83.2-62.4-1.6-104 25.6-96 81.6 6.4 46.4 44.8 84.8 96 84.8s96-28.8 92.8-83.2zM462.4 296m-12.8 0a12.8 12.8 0 1 1 25.6 0 12.8 12.8 0 1 1-25.6 0ZM409.6 294.4c-17.6-1.6-33.6-14.4-33.6-32 0-16 14.4-28.8 32-28.8s33.6 16 33.6 33.6-14.4 30.4-32 27.2zM678.4 577.6zM512 896C228.8 896 0 667.2 0 384s228.8-512 512-512 512 228.8 512 512S795.2 896 512 896z m73.6-737.6c-163.2-48-280 20.8-280 20.8-139.2 72-92.8 172.8-73.6 204.8 65.6 115.2 195.2 176 238.4 171.2 51.2-4.8 46.4-44.8 41.6-62.4-12.8-46.4 19.2-24 19.2-24 54.4 28.8 100.8 17.6 100.8 17.6 54.4-11.2 25.6-75.2 25.6-75.2-9.6-17.6 8-20.8 8-20.8 59.2-14.4 72-62.4 72-62.4 12.8-115.2-152-169.6-152-169.6z m118.4 272c0 1.6 1.6 3.2 1.6 3.2 0 1.6 1.6 3.2 1.6 6.4v3.2c0 1.6 0 4.8 0 0 0 4.8 1.6 11.2 0 16 0 1.6-1.6 4.8 0 0v1.6c0 1.6 0 3.2-1.6 4.8 0 1.6-1.6 3.2-1.6 4.8l-1.6 3.2v1.6s0 1.6-1.6 1.6c-1.6 1.6-1.6 3.2-3.2 4.8l-1.6 1.6c-1.6 1.6-1.6 3.2-3.2 3.2l-4.8 4.8c-1.6 0-1.6 1.6-3.2 1.6-3.2 1.6-6.4 4.8-9.6 6.4-1.6 0-1.6 1.6-3.2 1.6h-1.6 1.6c-1.6 1.6-3.2 1.6-4.8 1.6-3.2 1.6-6.4 1.6-8 1.6H656c1.6 0 3.2 0 0 0h-20.8c-1.6 0-3.2 0-4.8-1.6-6.4-3.2-14.4 3.2-16 9.6-1.6 6.4 3.2 14.4 9.6 16 8 3.2 16 3.2 25.6 3.2 35.2 0 68.8-24 81.6-57.6 6.4-19.2 4.8-41.6-3.2-60.8-3.2-6.4-12.8-8-17.6-4.8-8 9.6-9.6 17.6-6.4 22.4 0 1.6-1.6-1.6 0 0z m108.8-24c-4.8-12.8-22.4-14.4-33.6-9.6-12.8 6.4-14.4 22.4-9.6 33.6 0 0-3.2-8-1.6-3.2 1.6 1.6 1.6 4.8 1.6 6.4 1.6 3.2 1.6 8 3.2 11.2 0 1.6 1.6 4.8 1.6 6.4v1.6c0 9.6 1.6 19.2 0 30.4 0 1.6-1.6 8 0 0v4.8c0 3.2-1.6 6.4-1.6 8 0 3.2-1.6 6.4-3.2 8 0 0-1.6 4.8-3.2 6.4 0 0 0 1.6-1.6 1.6 0 1.6-1.6 3.2-1.6 4.8-1.6 3.2-3.2 6.4-4.8 8-1.6 1.6-1.6 3.2-3.2 4.8l-6.4 6.4-9.6 9.6-4.8 4.8h-1.6c-6.4 3.2-11.2 8-17.6 11.2-1.6 1.6-4.8 1.6-6.4 3.2-1.6 0-1.6 1.6-3.2 1.6 1.6 0 1.6 0 3.2-1.6-1.6 1.6-6.4 3.2-9.6 3.2-4.8 1.6-11.2 3.2-16 4.8h-3.2c1.6 0 3.2-1.6-1.6 0H649.6h-1.6c-3.2 0-4.8-1.6-8-1.6s-4.8-1.6-8-1.6c-12.8-4.8-27.2 4.8-30.4 17.6-4.8 12.8 4.8 25.6 17.6 30.4 14.4 4.8 32 6.4 46.4 6.4 67.2-1.6 131.2-44.8 152-108.8 12.8-32 9.6-75.2-4.8-108.8zM680 577.6s-1.6 0 0 0c-1.6 0 0 0 0 0z"  horiz-adv-x="1024" />

    
    <glyph glyph-name="jiahao" unicode="&#58881;" d="M409.6 486.4V844.8a51.2 51.2 0 0 0 51.2 51.2h102.4a51.2 51.2 0 0 0 51.2-51.2v-358.4h358.4a51.2 51.2 0 0 0 51.2-51.2v-102.4a51.2 51.2 0 0 0-51.2-51.2h-358.4v-358.4a51.2 51.2 0 0 0-51.2-51.2H460.8a51.2 51.2 0 0 0-51.2 51.2v358.4H51.2a51.2 51.2 0 0 0-51.2 51.2V435.2a51.2 51.2 0 0 0 51.2 51.2h358.4z"  horiz-adv-x="1024" />

    
    <glyph glyph-name="xinjian-blue" unicode="&#58884;" d="M512 768a382.6 382.6 0 1 0-149.45-30.15A381.54 381.54 0 0 0 512 768m0 64C264.58 832 64 631.4200000000001 64 384s200.58-448 448-448 448 200.58 448 448S759.42 832 512 832zM704 448H320a64 64 0 0 1 0-128h384a64 64 0 0 1 0 128zM512 576v-384 384m0 64a64 64 0 0 1-64-64v-384a64 64 0 0 1 128 0V576a64 64 0 0 1-64 64z"  horiz-adv-x="1024" />

    
    <glyph glyph-name="WEIXIN" unicode="&#58883;" d="M512 384m-512 0a512 512 0 1 1 1024 0 512 512 0 1 1-1024 0ZM427.52 307.2c0 102.4 94.72 184.32 217.6 184.32h7.68c-20.48 94.72-122.88 163.84-238.08 163.84-130.56 0-238.08-89.6-238.08-202.24 0-64 35.84-117.76 94.72-161.28l-23.04-71.68 81.92 40.96c30.72-5.12 53.76-12.8 81.92-12.8h23.04l2.56 2.56c-5.12 20.48-10.24 38.4-10.24 56.32zM847.36 307.2c0 94.72-94.72 171.52-202.24 171.52-112.64 0-202.24-76.8-202.24-171.52s89.6-171.52 202.24-171.52c23.04 0 48.64 5.12 71.68 12.8l64-35.84-17.92 58.88c48.64 33.28 84.48 81.92 84.48 135.68zM504.32 555.52c17.92 0 30.72-12.8 30.72-30.72s-12.8-30.72-30.72-30.72-35.84 12.8-35.84 30.72c0 20.48 17.92 30.72 35.84 30.72zM337.92 496.64c-17.92 0-35.84 12.8-35.84 30.72s17.92 30.72 35.84 30.72 30.72-12.8 30.72-30.72c-2.56-17.92-12.8-30.72-30.72-30.72zM581.12 335.36c-12.8 0-23.04 12.8-23.04 23.04 0 12.8 12.8 23.04 23.04 23.04 17.92 0 30.72-12.8 30.72-23.04-2.56-10.24-12.8-23.04-30.72-23.04zM711.68 335.36c-12.8 0-23.04 12.8-23.04 23.04 0 12.8 12.8 23.04 23.04 23.04 17.92 0 30.72-12.8 30.72-23.04-2.56-10.24-12.8-23.04-30.72-23.04z"  horiz-adv-x="1024" />

    
    <glyph glyph-name="upload" unicode="&#58911;" d="M779.656047 226.62062200000003a31.50762 31.50762 0 0 0-22.37041 9.294747L645.906202 347.294805l-111.379436-111.379436a31.50762 31.50762 0 0 0-44.583281 44.583282l133.749845 133.592307a31.50762 31.50762 0 0 0 44.425744 0l133.749845-133.592307a31.50762 31.50762 0 0 0-22.212872-53.878029zM960.982398-127.99763700000005H787.69049a31.50762 31.50762 0 0 0 0 63.015239h166.360231a29.302086 29.302086 0 0 0 5.356296 0 283.568576 283.568576 0 0 1 54.980796 557.527329 31.50762 31.50762 0 0 0-23.630715 27.411629 346.583816 346.583816 0 0 1-689.701793 0 31.50762 31.50762 0 0 0-23.788253-27.411629A283.568576 283.568576 0 0 1 332.405387-64.98239799999999a31.50762 31.50762 0 0 0 5.513833 0H645.906202a31.50762 31.50762 0 0 0 0-63.015239H330.830006a33.398077 33.398077 0 0 0-8.979672 1.260305 346.583816 346.583816 0 0 0-80.817044 675.05075 409.599055 409.599055 0 0 0 809.745824 0 346.583816 346.583816 0 0 0-81.132121-675.208288A31.50762 31.50762 0 0 0 960.982398-127.99763700000005zM645.906202-112.24382700000001a31.50762 31.50762 0 0 0-31.50762 31.507619V344.61665700000003a31.50762 31.50762 0 0 0 63.015239 0v-425.352865a31.50762 31.50762 0 0 0-31.507619-31.507619z"  horiz-adv-x="1291" />

    
    <glyph glyph-name="chenggong" unicode="&#58945;" d="M957.912908 636.050771L533.795743 211.933607c-15.996876-15.996876-41.891818-15.996876-57.888694 0L296.042179 391.698496c-15.996876 15.996876-15.996876 41.891818 0 57.888694s41.891818 15.996876 57.888694 0l150.770553-150.870533L911.122046 705.037297c-12.097637 14.997071-24.895138 29.494239-38.792423 43.191565C776.348369 843.510252 649.773091 895.90002 515.399336 895.90002H511.90002c-138.472955-0.999805-267.647725-54.589338-363.82894-150.970514C51.889865 648.648311-0.599883 520.373365 0.09998 383.800039c1.599688-282.144894 231.254833-511.800039 511.90002-511.800039 282.244874 0 511.90002 229.655145 511.90002 511.90002 0 89.882445-22.995509 176.065612-65.987112 252.150751z"  horiz-adv-x="1024" />

    
    <glyph glyph-name="meiyou-copy" unicode="&#59166;" d="M513.15 254.01199999999994c168.465 0 327.328-73.28 435.855-201.055 17.151-20.15 14.863-49.97-5.208-67.902-8.204-7.333-19.016-11.374-30.437-11.374-14.296 0-27.943 6.08-37.444 16.681C784.2 97.21799999999996 651.521 158.55600000000004 511.991 158.55600000000004c-140.53 0-273.215-61.351-364.031-168.317-9.165-10.763-22.292-16.942-36.014-16.942-11.251 0-22.12 4.175-30.606 11.759-10.123 8.6-16.111 20.257-16.981 32.942-0.847 12.384 3.298 24.35 11.671 33.693 110.402 128.613 269.695 202.321 437.12 202.321z m273.223 246.564c-43.766 0-80.734 37.845-80.734 82.638V703.895c0 44.798 36.969 82.646 80.734 82.646 43.763 0 80.734-37.848 80.734-82.646v-120.683c0-45.566-36.216-82.636-80.734-82.636z m-547.906 0c-43.761 0-80.731 37.845-80.731 82.638V703.895c0 44.798 36.97 82.646 80.731 82.646 43.771 0 80.746-37.848 80.746-82.646v-120.683c0-44.791-36.975-82.636-80.746-82.636z"  horiz-adv-x="1024" />

    


  </font>
</defs>
</svg>
